<svg width="32" height="33" viewBox="0 0 32 33" fill="none" xmlns="http://www.w3.org/2000/svg">
<path fill-rule="evenodd" clip-rule="evenodd" d="M16.7428 1.202C16.2855 0.932666 15.7145 0.932666 15.2572 1.202L3.70169 8.0089C3.26638 8.26532 3 8.72739 3 9.22605V22.9339C3 23.4326 3.26638 23.8947 3.70169 24.1511L15.2572 30.958C15.7145 31.2273 16.2855 31.2273 16.7428 30.958L28.2983 24.1511C28.7336 23.8947 29 23.4326 29 22.9339V9.22605C29 8.72739 28.7336 8.26532 28.2983 8.0089L16.7428 1.202ZM14.7128 8.53857C15.1427 7.93889 15.4225 7.57138 15.4225 7.57138C15.4225 7.57138 15.7024 7.93889 16.1322 8.53857C17.5545 10.5229 20.6187 15.0493 20.6187 17.2145C21.7734 21.7524 18.2923 24.5886 15.4225 24.5886C12.5528 24.5886 9.07174 21.1852 10.2264 17.2145C10.2264 15.0493 13.2906 10.5229 14.7128 8.53857ZM19.464 17.3541V17.2145C19.464 16.7756 19.2384 16.0148 18.7585 14.994C18.2991 14.0168 17.6766 12.9434 17.0393 11.9335C16.4619 11.0186 15.883 10.1727 15.4225 9.52114C14.9621 10.1727 14.3832 11.0186 13.8058 11.9335C13.1684 12.9434 12.5459 14.0168 12.0865 14.994C11.849 15.4993 11.6737 15.9409 11.5573 16.3113L19.6869 18.8073C19.6763 18.3923 19.6163 17.9526 19.4985 17.4896L19.464 17.3541Z" fill="white"/>
<path fill-rule="evenodd" clip-rule="evenodd" d="M3.70169 8.0089C3.26638 8.26532 3 8.72739 3 9.22605V22.9339C3 23.4326 3.26638 23.8947 3.70169 24.1511L15.2572 30.958C15.7145 31.2273 16.2855 31.2273 16.7428 30.958L28.2983 24.1511C28.7336 23.8947 29 23.4326 29 22.9339V9.22605C29 8.72739 28.7336 8.26532 28.2983 8.0089L16.7428 1.202C16.4658 1.03887 16.1471 0.974541 15.8372 1.00903C15.6355 1.03148 15.4375 1.0958 15.2572 1.202L3.70169 8.0089ZM8.49224 10.151L7.33332 10.8337V12.2602C7.5966 11.7315 7.87797 11.2136 8.15848 10.7231C8.26813 10.5314 8.37963 10.3404 8.49224 10.151ZM24.6667 15.1862V10.8337L21.6995 9.08581C22.0321 9.61274 22.3672 10.1646 22.6866 10.7231C23.2092 11.6369 23.7348 12.6458 24.1408 13.6427C24.3178 14.0771 24.5124 14.6039 24.6667 15.1862ZM12.1759 12.3964C11.7568 13.1064 11.3617 13.8302 11.0383 14.5183C10.7972 15.0311 10.5959 15.524 10.454 15.9766C10.3092 16.4385 10.2264 16.8584 10.2264 17.2145C9.90175 18.3308 9.94353 19.4022 10.2351 20.3658C10.9807 22.8298 13.3595 24.5886 15.4225 24.5886C16.6676 24.5886 18.0277 24.0548 19.0744 23.0798C20.1495 22.0782 20.894 20.6111 20.8434 18.7789C20.8308 18.3258 20.7697 17.8504 20.6529 17.3541C20.642 17.3078 20.6306 17.2612 20.6187 17.2145C20.6187 17.1679 20.6173 17.1203 20.6145 17.0716C20.6011 16.837 20.5559 16.5783 20.4841 16.3009C20.3452 15.7637 20.1068 15.1564 19.8068 14.5183C19.7822 14.4659 19.7572 14.4133 19.7317 14.3606C19.4231 13.7201 19.0564 13.0524 18.6692 12.3964C18.4571 12.0371 18.2388 11.6814 18.0206 11.3356C18.0189 11.333 18.0173 11.3303 18.0156 11.3276C18.0017 11.3056 17.9878 11.2837 17.9739 11.2617C17.7896 10.971 17.6057 10.6876 17.4258 10.4156C17.0443 9.83875 16.681 9.31264 16.371 8.87408C16.2873 8.75561 16.2074 8.64353 16.1322 8.53857C15.7024 7.93889 15.4225 7.57138 15.4225 7.57138C15.4225 7.57138 15.1427 7.93889 14.7128 8.53857C14.6376 8.64353 14.5578 8.75561 14.4741 8.87408C14.1641 9.31264 13.8007 9.83875 13.4193 10.4156C13.2393 10.6876 13.0554 10.971 12.8712 11.2617C12.8573 11.2837 12.8434 11.3056 12.8295 11.3276C12.8278 11.3303 12.8261 11.333 12.8244 11.3356C12.6062 11.6814 12.388 12.0371 12.1759 12.3964ZM13.5408 12.3587C13.5233 12.387 13.5059 12.4154 13.4886 12.4438C13.2835 12.7789 13.0826 13.1179 12.8911 13.4553C12.5939 13.9791 12.3193 14.4989 12.0865 14.994C11.8582 15.4798 11.6874 15.9067 11.5711 16.268C11.5664 16.2826 11.5618 16.297 11.5573 16.3113L19.6869 18.8073C19.6763 18.3923 19.6163 17.9526 19.4985 17.4896L19.464 17.3541V17.2145C19.464 16.7756 19.2384 16.0148 18.7585 14.994C18.5902 14.6359 18.3999 14.2649 18.1951 13.8888C18.1167 13.7449 18.0362 13.6003 17.9539 13.4553C17.7462 13.0893 17.5275 12.7214 17.3043 12.3587C17.2165 12.216 17.128 12.0741 17.0393 11.9335C16.4619 11.0186 15.883 10.1727 15.4225 9.52114C14.9621 10.1727 14.3832 11.0186 13.8058 11.9335C13.717 12.0741 13.6286 12.216 13.5408 12.3587Z" fill="white"/>
</svg>
