<svg width="31" height="30" viewBox="0 0 31 30" fill="none" xmlns="http://www.w3.org/2000/svg">
<path d="M7.11367 6.64073C7.50672 6.24727 8.03973 6.02624 8.59551 6.02624C9.15128 6.02624 9.68429 6.24727 10.0773 6.64073L15.9313 12.5026L21.7853 6.64073C21.9787 6.44028 22.21 6.28039 22.4657 6.17039C22.7214 6.0604 22.9964 6.0025 23.2747 6.00008C23.553 5.99766 23.829 6.05076 24.0866 6.15629C24.3442 6.26181 24.5782 6.41766 24.775 6.61471C24.9718 6.81177 25.1274 7.0461 25.2328 7.30403C25.3382 7.56196 25.3912 7.83833 25.3888 8.117C25.3864 8.39567 25.3286 8.67107 25.2187 8.92713C25.1089 9.18319 24.9492 9.41478 24.749 9.60838L18.895 15.4702L24.749 21.3321C25.1308 21.7279 25.3421 22.2581 25.3373 22.8084C25.3325 23.3586 25.1121 23.885 24.7235 24.2742C24.3349 24.6633 23.8092 24.884 23.2596 24.8888C22.7101 24.8936 22.1806 24.682 21.7853 24.2997L15.9313 18.4379L10.0773 24.2997C9.68204 24.682 9.1526 24.8936 8.60305 24.8888C8.0535 24.884 7.52781 24.6633 7.1392 24.2742C6.75059 23.885 6.53016 23.3586 6.52539 22.8084C6.52061 22.2581 6.73187 21.7279 7.11367 21.3321L12.9677 15.4702L7.11367 9.60838C6.72074 9.2148 6.5 8.68107 6.5 8.12455C6.5 7.56804 6.72074 7.03431 7.11367 6.64073Z" fill="#636363"/>
</svg>
