<svg width="32" height="33" viewBox="0 0 32 33" fill="none" xmlns="http://www.w3.org/2000/svg">
<path d="M15.9998 28.5001L14.0665 26.7668C11.8221 24.7446 9.9665 23.0001 8.49984 21.5334C7.03317 20.0668 5.8665 18.7499 4.99984 17.5828C4.13317 16.4166 3.52784 15.3446 3.18384 14.3668C2.83984 13.389 2.66739 12.389 2.6665 11.3668C2.6665 9.27789 3.3665 7.53345 4.7665 6.13345C6.1665 4.73345 7.91095 4.03345 9.99984 4.03345C11.1554 4.03345 12.2554 4.27789 13.2998 4.76678C14.3443 5.25567 15.2443 5.94456 15.9998 6.83345C16.7554 5.94456 17.6554 5.25567 18.6998 4.76678C19.7443 4.27789 20.8443 4.03345 21.9998 4.03345C24.0887 4.03345 25.8332 4.73345 27.2332 6.13345C28.6332 7.53345 29.3332 9.27789 29.3332 11.3668C29.3332 12.389 29.1607 13.389 28.8158 14.3668C28.4709 15.3446 27.8656 16.4166 26.9998 17.5828C26.1332 18.7499 24.9665 20.0668 23.4998 21.5334C22.0332 23.0001 20.1776 24.7446 17.9332 26.7668L15.9998 28.5001ZM15.9998 24.9001C18.1332 22.989 19.8887 21.3499 21.2665 19.9828C22.6443 18.6157 23.7332 17.4272 24.5332 16.4174C25.3332 15.4059 25.8887 14.5054 26.1998 13.7161C26.5109 12.9268 26.6665 12.1437 26.6665 11.3668C26.6665 10.0334 26.2221 8.92234 25.3332 8.03345C24.4443 7.14456 23.3332 6.70011 21.9998 6.70011C20.9554 6.70011 19.9887 6.99434 19.0998 7.58278C18.2109 8.17122 17.5998 8.92145 17.2665 9.83345H14.7332C14.3998 8.92234 13.7887 8.17211 12.8998 7.58278C12.0109 6.99345 11.0443 6.69923 9.99984 6.70011C8.6665 6.70011 7.55539 7.14456 6.6665 8.03345C5.77761 8.92234 5.33317 10.0334 5.33317 11.3668C5.33317 12.1446 5.48873 12.9281 5.79984 13.7174C6.11095 14.5068 6.6665 15.4068 7.4665 16.4174C8.2665 17.4281 9.35539 18.617 10.7332 19.9841C12.1109 21.3512 13.8665 22.9899 15.9998 24.9001Z" fill="white"/>
</svg>
