<svg width="20" height="20" viewBox="0 0 20 20" fill="none" xmlns="http://www.w3.org/2000/svg">
<path d="M7.09972 11.5378C6.23306 11.5378 5.52639 10.7503 5.52639 9.78615C5.52639 8.82281 6.21556 8.03615 7.10056 8.03615C7.97556 8.03615 8.69222 8.82281 8.67472 9.78615C8.67472 10.7503 7.97556 11.5378 7.09972 11.5378ZM12.9114 11.5378C12.0447 11.5378 11.3364 10.7503 11.3364 9.78615C11.3364 8.82281 12.0272 8.03615 12.9114 8.03615C13.7864 8.03615 14.5031 8.82281 14.4864 9.78615C14.4864 10.7503 13.7956 11.5378 12.9114 11.5378ZM8.43722 3.60198L8.18056 3.13281L7.65222 3.22031C6.45487 3.41996 5.28956 3.77869 4.18722 4.28698L3.99722 4.37531L3.87889 4.54948C1.70139 7.76115 1.10389 10.9228 1.39972 14.0295L1.43222 14.3678L1.70722 14.5678C2.98822 15.5077 4.41895 16.2242 5.93889 16.687L6.59722 16.8886L7.52472 14.6245C9.11639 15.0178 10.8831 15.0186 12.4739 14.6245L13.3964 16.8895L14.0547 16.687C15.5758 16.2254 17.0073 15.5086 18.2881 14.567L18.5606 14.3686L18.5939 14.0336C18.9572 10.4336 18.0131 7.29698 16.1289 4.54615L16.0106 4.37365L15.8206 4.28698C14.7185 3.78101 13.5546 3.42237 12.3589 3.22031L11.8439 3.13448L11.5822 3.58531C11.5047 3.72013 11.4316 3.85742 11.3631 3.99698C10.4591 3.9036 9.54787 3.9036 8.64389 3.99698C8.5775 3.86402 8.5086 3.73233 8.43722 3.60198ZM5.59556 13.8411C5.75972 13.9361 5.93306 14.0295 6.10389 14.1145L5.72972 15.0278C4.71772 14.6589 3.75757 14.1609 2.87306 13.5461C2.68556 10.9303 3.21722 8.29198 5.00972 5.57115C5.76619 5.23799 6.55473 4.98305 7.36306 4.81031C7.41306 4.91448 7.45972 5.01615 7.49806 5.10698L7.72556 5.64281L8.30222 5.55865C9.4323 5.39308 10.5805 5.39308 11.7106 5.55865L12.2856 5.64198L12.5122 5.10698C12.5514 5.01365 12.5972 4.91198 12.6456 4.81031C13.4597 4.98531 14.2481 5.24281 15.0022 5.57281C16.5647 7.92281 17.3531 10.5445 17.1239 13.5453C16.2394 14.1611 15.2786 14.6592 14.2656 15.027L13.8947 14.1153C14.0664 14.0295 14.2397 13.9361 14.4056 13.8411C14.8139 13.6061 15.2531 13.3128 15.5331 13.0328L14.4664 11.9661C14.3306 12.1028 14.0306 12.3161 13.6522 12.5345C13.2822 12.7478 12.9147 12.9203 12.6797 12.9978C11.0106 13.5503 8.98972 13.5503 7.31972 12.9978C7.08556 12.9203 6.71806 12.7478 6.34806 12.5345C5.96972 12.317 5.66972 12.1028 5.53306 11.9661L4.46639 13.0328C4.74722 13.3128 5.18722 13.6061 5.59556 13.8411Z" fill="white"/>
</svg>
