<svg width="20" height="20" viewBox="0 0 20 20" fill="none" xmlns="http://www.w3.org/2000/svg">
<path fill-rule="evenodd" clip-rule="evenodd" d="M4.82376 11.6832C4.85956 11.6951 4.89638 11.7037 4.93376 11.709C5.16953 12.2645 5.40397 12.8207 5.63709 13.3773C6.05626 14.379 6.47876 15.4107 6.57126 15.7073C6.68709 16.0723 6.80876 16.3207 6.94209 16.4907C7.01126 16.5773 7.09042 16.654 7.18376 16.7123C7.23238 16.7427 7.2844 16.7674 7.33876 16.7857C7.60542 16.8857 7.84876 16.844 8.00126 16.7932C8.09075 16.7626 8.1759 16.7206 8.25459 16.6682L8.25876 16.6665L10.6138 15.1982L13.3346 17.2832C13.3746 17.314 13.4179 17.3398 13.4646 17.3607C13.7913 17.5023 14.1079 17.5523 14.4063 17.5123C14.7029 17.4707 14.9388 17.3465 15.1146 17.2057C15.3165 17.0429 15.4775 16.8351 15.5846 16.599L15.5921 16.5807L15.5946 16.574L15.5963 16.5707V16.569L15.5971 16.5682C15.6116 16.5323 15.6227 16.4952 15.6304 16.4573L18.1138 3.93649C18.1216 3.89641 18.1255 3.85566 18.1254 3.81483C18.1254 3.44816 17.9871 3.09899 17.6629 2.88816C17.3846 2.70733 17.0754 2.69899 16.8796 2.71399C16.6696 2.73066 16.4746 2.78233 16.3438 2.82399C16.2705 2.8472 16.1982 2.87334 16.1271 2.90233L16.1179 2.90649L2.18959 8.36982L2.18792 8.37066C2.1408 8.38799 2.09437 8.40717 2.04876 8.42816C1.93831 8.47781 1.83236 8.53692 1.73209 8.60483C1.54292 8.73399 1.10709 9.08899 1.18126 9.67566C1.23959 10.1423 1.55959 10.4298 1.75542 10.5682C1.86209 10.644 1.96376 10.6982 2.03876 10.734C2.07209 10.7507 2.14376 10.779 2.17459 10.7923L2.18292 10.7948L4.82376 11.6832ZM16.6054 4.05649H16.6038C16.5966 4.05968 16.5894 4.06273 16.5821 4.06566L2.63709 9.53649C2.62992 9.53939 2.62269 9.54217 2.61542 9.54483L2.60709 9.54732C2.58162 9.55734 2.55659 9.56846 2.53209 9.58066C2.55529 9.59394 2.57921 9.60591 2.60376 9.61649L5.22209 10.4982C5.26888 10.5139 5.31364 10.5352 5.35542 10.5615L14.0029 5.49899L14.0113 5.49483C14.0448 5.47441 14.0793 5.45551 14.1146 5.43816C14.1746 5.40733 14.2704 5.36233 14.3788 5.32899C14.4538 5.30566 14.6763 5.23983 14.9163 5.31733C15.0436 5.35745 15.157 5.43257 15.2437 5.53409C15.3303 5.63562 15.3866 5.75947 15.4063 5.89149C15.4373 6.00712 15.4382 6.12877 15.4088 6.24483C15.3504 6.47399 15.1904 6.65233 15.0438 6.78899C14.9188 6.90566 13.2979 8.46899 11.6988 10.0123L9.52126 12.1123L9.13376 12.4873L14.0271 16.239C14.0931 16.2667 14.1649 16.2781 14.2363 16.2723C14.2722 16.2674 14.306 16.2524 14.3338 16.229C14.3675 16.2005 14.3965 16.1667 14.4196 16.129L14.4213 16.1282L16.8296 3.98399C16.7537 4.00224 16.6793 4.0262 16.6071 4.05566L16.6054 4.05649ZM9.55459 14.3848L8.57792 13.6365L8.34126 15.1407L9.55459 14.3848ZM7.68209 12.1515L8.65292 11.214L10.8304 9.11233L11.6413 8.33066L6.20792 11.5115L6.23709 11.5798C6.57976 12.3893 6.91865 13.2005 7.25376 14.0132L7.48959 12.5132C7.51093 12.374 7.57879 12.2471 7.68209 12.1515Z" fill="white"/>
</svg>
