<svg width="17" height="15" viewBox="0 0 17 15" fill="none" xmlns="http://www.w3.org/2000/svg">
<path d="M11.7917 2.62477C11.1585 2.62466 10.5506 2.87309 10.0986 3.31661C9.64668 3.76014 9.38687 4.36333 9.37508 4.99644L9.35174 6.30894C9.35049 6.37948 9.33433 6.44896 9.30431 6.5128C9.2743 6.57665 9.23111 6.63342 9.17759 6.67939C9.12406 6.72536 9.06142 6.75948 8.99377 6.77951C8.92612 6.79954 8.855 6.80502 8.78508 6.7956L7.48341 6.6181C5.77258 6.38477 4.13258 5.59727 2.55841 4.28644C2.06091 7.04477 3.03341 8.9556 5.37758 10.4298L6.83341 11.3448C6.90246 11.3882 6.95984 11.4479 7.00054 11.5186C7.04123 11.5893 7.06401 11.6689 7.06689 11.7504C7.06977 11.8319 7.05265 11.9129 7.01704 11.9863C6.98143 12.0597 6.9284 12.1232 6.86258 12.1714L5.53591 13.1414C6.32508 13.1914 7.07424 13.1564 7.69591 13.0331C11.6276 12.2481 14.2417 9.28977 14.2417 4.40977C14.2417 4.01144 13.3976 2.62477 11.7917 2.62477ZM7.70841 4.96644C7.72296 4.16314 7.97415 3.38199 8.43054 2.72079C8.88694 2.05958 9.52824 1.5477 10.2742 1.24924C11.0201 0.950782 11.8375 0.879003 12.624 1.04289C13.4106 1.20678 14.1313 1.59906 14.6959 2.1706C15.2884 2.16644 15.7926 2.31644 16.9192 1.63227C16.6409 2.99894 16.5026 3.5931 15.9084 4.40894C15.9084 10.7764 11.9942 13.8739 8.02174 14.6664C5.29924 15.2098 1.33841 14.3173 0.205078 13.1314C0.782578 13.0873 3.13258 12.8348 4.49091 11.8398C3.34091 11.0814 -1.23242 8.38977 1.77341 1.15477C3.18424 2.80227 4.61508 3.9231 6.06508 4.51894C7.02924 4.91477 7.26674 4.90644 7.70924 4.96727L7.70841 4.96644Z" fill="white"/>
</svg>
