<svg width="32" height="33" viewBox="0 0 32 33" fill="none" xmlns="http://www.w3.org/2000/svg">
<path d="M27 9.5H7C6.73478 9.5 6.48043 9.39464 6.29289 9.20711C6.10536 9.01957 6 8.76522 6 8.5C6 8.23478 6.10536 7.98043 6.29289 7.79289C6.48043 7.60536 6.73478 7.5 7 7.5H24C24.2652 7.5 24.5196 7.39464 24.7071 7.20711C24.8946 7.01957 25 6.76522 25 6.5C25 6.23478 24.8946 5.98043 24.7071 5.79289C24.5196 5.60536 24.2652 5.5 24 5.5H7C6.20435 5.5 5.44129 5.81607 4.87868 6.37868C4.31607 6.94129 4 7.70435 4 8.5V24.5C4 25.2956 4.31607 26.0587 4.87868 26.6213C5.44129 27.1839 6.20435 27.5 7 27.5H27C27.5304 27.5 28.0391 27.2893 28.4142 26.9142C28.7893 26.5391 29 26.0304 29 25.5V11.5C29 10.9696 28.7893 10.4609 28.4142 10.0858C28.0391 9.71071 27.5304 9.5 27 9.5ZM27 25.5H7C6.73478 25.5 6.48043 25.3946 6.29289 25.2071C6.10536 25.0196 6 24.7652 6 24.5V11.3287C6.32109 11.4426 6.65933 11.5005 7 11.5H27V25.5ZM21 18C21 17.7033 21.088 17.4133 21.2528 17.1666C21.4176 16.92 21.6519 16.7277 21.926 16.6142C22.2001 16.5007 22.5017 16.4709 22.7926 16.5288C23.0836 16.5867 23.3509 16.7296 23.5607 16.9393C23.7704 17.1491 23.9133 17.4164 23.9712 17.7074C24.0291 17.9983 23.9993 18.2999 23.8858 18.574C23.7723 18.8481 23.58 19.0824 23.3334 19.2472C23.0867 19.412 22.7967 19.5 22.5 19.5C22.1022 19.5 21.7206 19.342 21.4393 19.0607C21.158 18.7794 21 18.3978 21 18Z" fill="white"/>
</svg>
